<svg xmlns="http://www.w3.org/2000/svg" width="19" height="19" viewBox="0 0 19 19">
  <g id="그룹_65335" data-name="그룹 65335" transform="translate(-204 -1188)">
    <path id="패스_115353" data-name="패스 115353" d="M32.968,70.535H26.675a3.147,3.147,0,0,0,6.293,0" transform="translate(183.679 1133.318)" fill="#212124"/>
    <path id="패스_115354" data-name="패스 115354" d="M17.269,16.977H1.731A1.738,1.738,0,0,1,.157,16a1.582,1.582,0,0,1,.268-1.766,5.074,5.074,0,0,0,1.337-3.413V7.434A7.567,7.567,0,0,1,7.845.161,8.319,8.319,0,0,1,9.515,0a7.959,7.959,0,0,1,1.652.164,7.567,7.567,0,0,1,6.071,7.27v3.388a5.074,5.074,0,0,0,1.337,3.413A1.583,1.583,0,0,1,18.843,16a1.738,1.738,0,0,1-1.574.977m-.452-1.264h0ZM2.939,14.73H16.061A7.213,7.213,0,0,1,14.9,10.822V7.434a5.284,5.284,0,0,0-4.249-5.077l-.03-.007a5.442,5.442,0,0,0-1.082-.1H9.523a6.2,6.2,0,0,0-1.164.106A5.288,5.288,0,0,0,4.1,7.434v3.388A7.213,7.213,0,0,1,2.939,14.73" transform="translate(204 1188)" fill="#212124"/>
  </g>
</svg>
