<svg xmlns="http://www.w3.org/2000/svg" width="13" height="13" viewBox="0 0 13 13">
  <g id="그룹_65145" data-name="그룹 65145" transform="translate(-309.5 -184.5)">
    <path id="패스_115290" data-name="패스 115290" d="M12,6c0,.064,0,.13,0,.193a6,6,0,0,1-4.328,5.57,5.982,5.982,0,0,1-3.335,0A5.988,5.988,0,0,1,0,6.193C0,6.13,0,6.064,0,6A6,6,0,0,1,10.734,2.32,5.945,5.945,0,0,1,12,6" transform="translate(310 185)" fill="none" stroke="#e0e0e0" stroke-width="1"/>
    <path id="패스_115291" data-name="패스 115291" d="M21.912,24.512l-.8-2.459,2.091-1.52,2.091,1.52-.8,2.459Z" transform="translate(292.795 168.267)"/>
    <path id="패스_115292" data-name="패스 115292" d="M25.478.356,23.439,1.837,21.4.356a6.017,6.017,0,0,1,4.078,0" transform="translate(292.561 185)"/>
    <path id="패스_115293" data-name="패스 115293" d="M2.041,14.929,0,16.407c0-.064,0-.13,0-.193a5.957,5.957,0,0,1,1.263-3.68Z" transform="translate(310 174.786)"/>
    <path id="패스_115294" data-name="패스 115294" d="M8.879,53a6,6,0,0,1-3.3-2.395H8.1Z" transform="translate(305.454 143.758)"/>
    <path id="패스_115295" data-name="패스 115295" d="M44.721,50.61A6,6,0,0,1,41.423,53L42.2,50.61Z" transform="translate(276.244 143.758)"/>
    <path id="패스_115296" data-name="패스 115296" d="M55.844,16.214c0,.064,0,.13,0,.193L53.8,14.929l.775-2.395a5.945,5.945,0,0,1,1.266,3.68" transform="translate(266.156 174.786)"/>
  </g>
</svg>
