<svg xmlns="http://www.w3.org/2000/svg" xmlns:xlink="http://www.w3.org/1999/xlink" width="16.808" height="16.808" viewBox="0 0 16.808 16.808">
  <defs>
    <clipPath id="clip-path">
      <path id="패스_115331" data-name="패스 115331" d="M10.861,8.591a7.9,7.9,0,1,0,7.9-7.9,7.9,7.9,0,0,0-7.9,7.9" transform="translate(-10.861 -0.686)" fill="none"/>
    </clipPath>
    <radialGradient id="radial-gradient" cx="0.427" cy="0.143" r="0.603" gradientTransform="matrix(1, 0, 0, -1, 0, 2.942)" gradientUnits="objectBoundingBox">
      <stop offset="0" stop-color="#fff"/>
      <stop offset="0.225" stop-color="#fff"/>
      <stop offset="0.278" stop-color="#fcfcfc"/>
      <stop offset="0.523" stop-color="#f4f4f4"/>
      <stop offset="0.994" stop-color="#f2f2f2"/>
      <stop offset="1" stop-color="#f2f2f2"/>
    </radialGradient>
  </defs>
  <g id="그룹_65236" data-name="그룹 65236" transform="translate(-100.298 -955.692)">
    <g id="그룹_65235" data-name="그룹 65235" transform="translate(100.798 956.191)">
      <g id="그룹_65234" data-name="그룹 65234" transform="translate(0 0)" clip-path="url(#clip-path)">
        <rect id="사각형_45174" data-name="사각형 45174" width="15.808" height="15.808" transform="translate(0 0)" fill="url(#radial-gradient)"/>
      </g>
    </g>
    <path id="패스_115332" data-name="패스 115332" d="M10.861,8.591a7.9,7.9,0,1,1,7.9,7.9A7.9,7.9,0,0,1,10.861,8.591Z" transform="translate(89.937 955.505)" fill="none" stroke="#fff" stroke-width="1"/>
    <path id="패스_115333" data-name="패스 115333" d="M48.166,14.132a23.385,23.385,0,0,0-3.359.354" transform="translate(65.454 945.807)" fill="none" stroke="#999" stroke-width="0.5"/>
    <path id="패스_115334" data-name="패스 115334" d="M34.94,1.449s-.278,1.642-.278,1.995" transform="translate(72.771 954.955)" fill="none" stroke="#999" stroke-width="0.5"/>
    <line id="선_273" data-name="선 273" x2="2.728" y2="0.05" transform="translate(101.902 960.546)" fill="none" stroke="#999" stroke-width="0.5"/>
    <path id="패스_115335" data-name="패스 115335" d="M23.555,27.9a13.072,13.072,0,0,0-1.667,3.738" transform="translate(81.984 935.877)" fill="none" stroke="#999" stroke-width="0.5"/>
    <path id="패스_115336" data-name="패스 115336" d="M41.093,27.177a29.893,29.893,0,0,1,2.475,3.586" transform="translate(68.132 936.399)" fill="none" stroke="#999" stroke-width="0.5"/>
    <path id="패스_115337" data-name="패스 115337" d="M61.536,23.735A8.083,8.083,0,0,1,60.3,27.826" transform="translate(54.28 938.882)" fill="none" stroke="#999" stroke-width="0.5"/>
    <path id="패스_115338" data-name="패스 115338" d="M32.5,50.278a17.927,17.927,0,0,1-4.722.05" transform="translate(77.737 919.738)" fill="none" stroke="#999" stroke-width="0.5"/>
    <path id="패스_115339" data-name="패스 115339" d="M11.043,21.018a6.048,6.048,0,0,0,.808,5.227" transform="translate(90 940.841)" fill="none" stroke="#999" stroke-width="0.5"/>
    <path id="패스_115340" data-name="패스 115340" d="M33.945,0,33.87.2l-.985.3L31.673.354A6.274,6.274,0,0,1,33.945,0" transform="translate(74.926 956)" fill="#00000d"/>
    <path id="패스_115341" data-name="패스 115341" d="M26.715,7.882a10.157,10.157,0,0,0-3.107,2.374,16.9,16.9,0,0,0,1.086,3.359s3.233-.278,3.914-.227a32.757,32.757,0,0,1,1.162-3.51,9.242,9.242,0,0,0-3.055-1.995" transform="translate(80.743 950.315)" fill="#00000d"/>
    <path id="패스_115342" data-name="패스 115342" d="M45.221,37.426a11.647,11.647,0,0,1-1.591,3.182A9.224,9.224,0,0,0,46.08,41.9a8.225,8.225,0,0,0,2.778-2.374,17.232,17.232,0,0,0-.329-2.652,7.81,7.81,0,0,1-3.308.556" transform="translate(66.303 929.408)" fill="#00000d"/>
    <path id="패스_115343" data-name="패스 115343" d="M14.1,40.217l.025-1.263a9.408,9.408,0,0,0,2.248.3,7.155,7.155,0,0,0,2.2,2.98,6.64,6.64,0,0,1-1.187,1.111s-1.641-.479-3.283-3.131" transform="translate(87.603 927.905)" fill="#00000d"/>
    <path id="패스_115344" data-name="패스 115344" d="M11.289,15.182l.252-.177a5.557,5.557,0,0,1,.884-1.263V12.682a9.109,9.109,0,0,0-1.137,2.5" transform="translate(89.628 946.853)" fill="#00000d"/>
    <path id="패스_115345" data-name="패스 115345" d="M57.13,7.247l-.4.2a4.506,4.506,0,0,1-.051,1.768A8.588,8.588,0,0,1,58.9,12.045s.707-.228.833-.455a8.2,8.2,0,0,0-2.6-4.344" transform="translate(56.894 950.773)" fill="#00000d"/>
  </g>
</svg>
