<svg xmlns="http://www.w3.org/2000/svg" width="16" height="15" viewBox="0 0 16 15">
  <path id="패스_115352" data-name="패스 115352" d="M225.689,3.413,227.4,7.458a.682.682,0,0,0,.576.411l4.45.35a.668.668,0,0,1,.39,1.177l-3.39,2.85a.663.663,0,0,0-.22.665l1.036,4.262a.68.68,0,0,1-1.02.728l-3.81-2.284a.694.694,0,0,0-.712,0l-3.81,2.284a.68.68,0,0,1-1.02-.728l1.036-4.262a.663.663,0,0,0-.22-.665L217.3,9.4a.668.668,0,0,1,.39-1.177l4.45-.35a.682.682,0,0,0,.576-.411l1.714-4.045A.688.688,0,0,1,225.689,3.413Z" transform="translate(-217.059 -3)" fill="#ffc207"/>
</svg>
