<svg xmlns="http://www.w3.org/2000/svg" width="37" height="35" viewBox="0 0 37 35">
  <path id="패스_114357" data-name="패스 114357" d="M237.017,3.963l3.964,9.439a1.578,1.578,0,0,0,1.332.959l10.29.816a1.561,1.561,0,0,1,.9,2.747l-7.84,6.65a1.555,1.555,0,0,0-.509,1.551l2.4,9.944a1.576,1.576,0,0,1-2.359,1.7l-8.81-5.329a1.592,1.592,0,0,0-1.647,0l-8.81,5.329a1.576,1.576,0,0,1-2.359-1.7l2.4-9.944a1.556,1.556,0,0,0-.509-1.551l-7.84-6.65a1.561,1.561,0,0,1,.9-2.747l10.29-.816a1.578,1.578,0,0,0,1.332-.959L234.1,3.963A1.585,1.585,0,0,1,237.017,3.963Z" transform="translate(-217.059 -3)" fill="#ffc207"/>
</svg>
