<svg xmlns="http://www.w3.org/2000/svg" width="15.269" height="15.268" viewBox="0 0 15.269 15.268">
  <path id="패스_115323" data-name="패스 115323" d="M14.992,22.483a1.038,1.038,0,0,1-.268.575l-1.018,1.02c-3.471,2.906-7.88-1.423-7.924-1.467L3.477,20.306C3.433,20.261-.9,15.855,2,12.4l1.036-1.036a1.037,1.037,0,0,1,.575-.268.956.956,0,0,1,.124-.008A.528.528,0,0,1,4.1,11.2l2.154,2.486a.663.663,0,0,1,0,.936l-.786.787a2.205,2.205,0,0,0-.417.6,2.827,2.827,0,0,0,.737,2.974L7.109,20.31a2.819,2.819,0,0,0,2.981.723,2.22,2.22,0,0,0,.594-.418l.779-.779a.669.669,0,0,1,.949.013l2.462,2.135A.606.606,0,0,1,14.992,22.483Z" transform="translate(-0.358 -10.457)" fill="none" stroke="#3499fe" stroke-miterlimit="10" stroke-width="1.25"/>
</svg>
